<svg xmlns="http://www.w3.org/2000/svg" xmlns:xlink="http://www.w3.org/1999/xlink"><symbol id="icon-archer" viewBox="0 0 33 64">
<path fill-rule="evenodd" clip-rule="evenodd" d="M32.001 1.184C32.0654 0.608 32.001 0.672 31.7757 0.16C31.7113 0.064 31.6147 0 31.4859 0C31.1318 0 30.5523 0.448 30.2304 0.8C28.0412 3.232 25.3692 7.328 23.9527 7.808C23.2445 8.064 22.5684 6.816 22.0855 6.368C20.1539 4.48 17.6751 2.368 13.6509 1.12C11.5262 0.416 9.72334 -0.192 9.04729 0.128C7.79175 0.704 9.59457 1.856 10.3028 2.624C10.8501 3.2 11.4618 3.136 12.1056 2.848C12.5885 2.656 13.168 2.656 13.6509 2.848C17.2887 4.32 19.3491 5.728 21.4417 7.968C22.1177 8.736 22.5362 9.696 21.8924 10.304C19.7354 12.384 17.4819 14.592 15.3571 16.704C14.8742 17.184 14.2948 17.824 13.6831 17.792C13.2968 17.76 12.6851 17.344 12.331 17.12C11.7193 16.704 11.172 16.48 10.5926 16.032C10.0775 15.648 9.98089 15.296 9.9487 14.656C9.9165 13.6 10.174 12.704 10.335 11.904C10.5926 10.464 10.9145 9.024 11.2042 7.552C11.4296 6.432 11.5584 4.992 11.4618 3.808C11.3652 3.52 10.8823 3.456 10.5604 3.68C10.4316 4.288 10.4316 4.288 10.3028 4.928C10.174 5.6 10.0453 6.816 9.9165 7.488C9.53018 9.6 9.01509 11.2 8.66097 13.952C8.59658 14.368 8.5 15.072 8.43562 15.584C8.37123 16.288 8.59658 17.152 8.37123 17.6C8.08149 18.24 7.82395 18.752 7.98491 19.616C8.11369 20.448 7.92053 20.672 7.40544 21.088C6.66499 21.696 5.02314 22.912 4.08954 23.456C3.57445 23.776 2.93059 24.384 3.31691 25.024C3.67103 25.664 4.47586 25.792 5.18411 25.824C6.27868 25.888 7.66298 24.48 8.72536 24.256C9.14387 24.16 9.72334 24 10.0775 24.288C10.5282 24.608 10.6248 25.12 10.7213 25.632C11.1398 27.552 11.0111 28.544 10.8823 30.592C10.7857 31.808 10.496 34.016 10.0775 35.168C9.75554 36.064 9.43361 36.448 8.69316 37.088C8.01711 37.664 7.21228 38.464 6.98693 39.872C6.89035 40.544 7.34105 42.144 6.6328 43.968C5.95674 45.696 5.86017 46.08 5.15192 47.712C4.79779 48.544 4.44367 49.568 4.05735 50.592C3.38129 52.384 3.28471 52.256 2.73743 54.08C2.44769 55.072 1.99699 56.512 1.70725 57.504C1.19216 59.136 1.38532 59.04 0.580488 60.704C0.355136 61.12 -0.256534 62.432 0.19417 63.264C0.387329 63.616 0.90242 64 1.28874 64C1.32093 64 1.35312 64 1.38532 64C2.19015 63.808 2.80182 63.52 3.18813 62.72C3.54226 61.984 3.3491 60.928 3.60664 60.16C4.18612 58.4 4.7656 56.608 5.53823 54.912C6.37526 53.088 6.27868 52.384 7.01912 50.464C7.82395 48.288 8.37123 46.944 9.53018 44.96C10.9145 42.624 14.5201 39.456 16.0654 38.336C18.4799 36.64 19.993 35.52 19.671 37.472C19.4135 39.136 16.5805 43.296 15.9688 44.672C15.6469 45.344 15.6147 46.048 15.9044 46.624C16.2586 47.36 17.0634 48.352 17.8682 48.288C18.6087 48.256 19.2525 47.264 19.0272 46.56C18.7374 45.696 18.7052 45.056 19.7676 43.008C21.0875 40.48 23.1801 36.864 22.7938 33.696C22.665 32.544 21.2807 31.968 20.1539 32.352C18.8662 32.8 16.7415 34.496 15.4215 35.2C14.5201 35.68 13.8763 35.872 13.7797 34.912C13.6831 34.016 13.8763 32.96 13.9406 32.032C14.2304 28.736 14.0372 27.552 14.3592 24.64C14.4557 23.808 15.2928 22.688 16.001 23.328C18.2545 25.312 21.1519 27.616 23.4054 29.408C24.339 30.144 24.7575 30.784 25.2083 32.096C25.4336 32.736 25.2404 33.696 25.0151 34.592C24.9185 35.008 25.1117 35.616 26.0131 35.008C28.1056 32.192 29.5221 27.616 29.5221 24.064C29.5543 20.928 29.9084 17.536 26.5282 12.032C25.9809 11.136 24.6932 9.152 25.9487 7.84C27.7193 5.92 31.2284 2.688 32.001 1.184ZM27.7515 20.48C27.8481 21.696 27.8803 22.624 27.8803 23.84C27.8803 24.64 27.5905 25.632 27.4296 26.72C27.333 27.456 27.2686 28.512 26.9145 29.568C26.8501 29.728 26.6569 30.208 26.3028 30.208C25.9165 30.24 25.7877 29.728 25.5946 29.504C24.9185 28.736 24.3712 28 23.6308 27.392C22.9225 26.848 21.7314 26.016 20.9588 25.536C20.2505 25.056 19.5101 24.256 18.8018 23.744C18.0614 23.2 17.3853 22.688 16.7093 22.048C16.5161 21.888 16.2907 21.6 16.1942 21.408C16.0332 21.024 16.0332 20.544 16.162 20.192C16.3229 19.648 16.6771 19.168 16.999 18.688C17.4175 18.08 17.8682 17.504 18.3511 16.96C18.6408 16.64 19.1237 16.192 19.4779 15.968C20.0252 15.648 20.2505 15.552 20.7012 15.104C21.1519 14.688 21.1197 14.272 21.5704 13.824C22.0211 13.376 22.5684 12.512 23.1157 12.128C23.341 11.968 23.7274 11.808 23.9849 11.936C24.339 12.064 24.6932 12.512 24.8863 12.832C26.3672 15.456 27.5262 17.632 27.7515 20.48Z" fill="#1F4766"/>
</symbol><symbol id="icon-logo" viewBox="0 0 182 36">
<path d="M50.04 25C49.9067 25 49.7933 24.9533 49.7 24.86C49.6067 24.7667 49.56 24.6533 49.56 24.52V11.5C49.56 11.3533 49.6 11.2333 49.68 11.14C49.7733 11.0467 49.8933 11 50.04 11H55.84C57.4 11 58.56 11.3467 59.32 12.04C60.0933 12.72 60.48 13.6533 60.48 14.84C60.48 15.5333 60.3067 16.1267 59.96 16.62C59.6267 17.1 59.2333 17.4467 58.78 17.66C59.34 17.9133 59.8067 18.3267 60.18 18.9C60.5667 19.4733 60.76 20.1267 60.76 20.86C60.76 22.1 60.34 23.1 59.5 23.86C58.6733 24.62 57.5067 25 56 25H50.04ZM55.48 16.74C56.1733 16.74 56.7 16.5733 57.06 16.24C57.42 15.9067 57.6 15.46 57.6 14.9C57.6 14.3267 57.42 13.8867 57.06 13.58C56.7 13.26 56.1733 13.1 55.48 13.1H52.34V16.74H55.48ZM55.68 22.88C56.3733 22.88 56.9133 22.6933 57.3 22.32C57.6867 21.9333 57.88 21.4467 57.88 20.86C57.88 20.26 57.6867 19.7733 57.3 19.4C56.9133 19.0133 56.3733 18.82 55.68 18.82H52.34V22.88H55.68ZM72.5109 14.6C72.6309 14.6 72.7376 14.6467 72.8309 14.74C72.9243 14.82 72.9709 14.92 72.9709 15.04V24.52C72.9709 24.6533 72.9243 24.7667 72.8309 24.86C72.7376 24.9533 72.6243 25 72.4909 25H70.8309C70.6976 25 70.5843 24.9533 70.4909 24.86C70.3976 24.7667 70.3509 24.6533 70.3509 24.52V18.1L65.5509 24.68C65.4309 24.8933 65.2509 25 65.0109 25H63.4909C63.3709 25 63.2643 24.96 63.1709 24.88C63.0776 24.7867 63.0309 24.6733 63.0309 24.54V15.08C63.0309 14.9467 63.0776 14.8333 63.1709 14.74C63.2643 14.6467 63.3776 14.6 63.5109 14.6H65.1709C65.3176 14.6 65.4309 14.6467 65.5109 14.74C65.6043 14.82 65.6509 14.9333 65.6509 15.08V21.52L70.4509 14.92C70.5976 14.7067 70.7776 14.6 70.9909 14.6H72.5109ZM75.0919 27.2C74.9585 27.2 74.8452 27.1533 74.7519 27.06C74.6585 26.98 74.6119 26.8667 74.6119 26.72V23.36C74.6119 23.2267 74.6585 23.1133 74.7519 23.02C74.8452 22.9267 74.9585 22.88 75.0919 22.88H75.2519C75.7719 22.88 76.1519 22.4667 76.3919 21.64C76.6319 20.8133 76.7519 19.5267 76.7519 17.78V15.08C76.7519 14.9333 76.7985 14.82 76.8919 14.74C76.9852 14.6467 77.0985 14.6 77.2319 14.6H84.3519C84.4985 14.6 84.6119 14.6467 84.6919 14.74C84.7852 14.82 84.8319 14.9333 84.8319 15.08V22.86H85.7319C85.8785 22.86 85.9919 22.9067 86.0719 23C86.1652 23.08 86.2119 23.1933 86.2119 23.34V26.72C86.2119 26.8667 86.1652 26.98 86.0719 27.06C85.9919 27.1533 85.8785 27.2 85.7319 27.2H84.0919C83.9452 27.2 83.8252 27.1533 83.7319 27.06C83.6385 26.9667 83.5919 26.8533 83.5919 26.72V25H77.2319V26.72C77.2319 26.8667 77.1852 26.98 77.0919 27.06C77.0119 27.1533 76.8985 27.2 76.7519 27.2H75.0919ZM82.2319 22.86V16.72H79.2719V18.06C79.2719 20.3533 78.9585 21.96 78.3319 22.88L82.2319 22.86ZM92.5305 25.2C91.0505 25.2 89.8705 24.7733 88.9905 23.92C88.1238 23.0533 87.6638 21.84 87.6105 20.28L87.5905 19.78L87.6105 19.28C87.6771 17.76 88.1438 16.5667 89.0105 15.7C89.8905 14.8333 91.0638 14.4 92.5305 14.4C94.1038 14.4 95.3171 14.88 96.1705 15.84C97.0371 16.8 97.4705 18.08 97.4705 19.68V20.1C97.4705 20.2333 97.4238 20.3467 97.3305 20.44C97.2371 20.5333 97.1171 20.58 96.9705 20.58H90.3305V20.74C90.3571 21.4733 90.5571 22.0933 90.9305 22.6C91.3171 23.0933 91.8438 23.34 92.5105 23.34C93.2971 23.34 93.9305 23.0333 94.4105 22.42C94.5305 22.2733 94.6238 22.18 94.6905 22.14C94.7705 22.1 94.8838 22.08 95.0305 22.08H96.7505C96.8705 22.08 96.9705 22.12 97.0505 22.2C97.1438 22.2667 97.1905 22.3533 97.1905 22.46C97.1905 22.78 96.9971 23.16 96.6105 23.6C96.2371 24.0267 95.6971 24.4 94.9905 24.72C94.2838 25.04 93.4638 25.2 92.5305 25.2ZM94.7505 18.9V18.84C94.7505 18.0533 94.5505 17.42 94.1505 16.94C93.7638 16.46 93.2238 16.22 92.5305 16.22C91.8371 16.22 91.2971 16.46 90.9105 16.94C90.5238 17.42 90.3305 18.0533 90.3305 18.84V18.9H94.7505ZM104.193 25.2C102.633 25.2 101.427 24.8 100.573 24C99.7201 23.1867 99.2601 22.08 99.1934 20.68L99.1734 19.8L99.1934 18.92C99.2601 17.5333 99.7268 16.4333 100.593 15.62C101.46 14.8067 102.66 14.4 104.193 14.4C105.727 14.4 106.927 14.8067 107.793 15.62C108.66 16.4333 109.127 17.5333 109.193 18.92C109.207 19.08 109.213 19.3733 109.213 19.8C109.213 20.2267 109.207 20.52 109.193 20.68C109.127 22.08 108.667 23.1867 107.813 24C106.96 24.8 105.753 25.2 104.193 25.2ZM104.193 23.22C104.9 23.22 105.447 23 105.833 22.56C106.22 22.1067 106.433 21.4467 106.473 20.58C106.487 20.4467 106.493 20.1867 106.493 19.8C106.493 19.4133 106.487 19.1533 106.473 19.02C106.433 18.1533 106.22 17.5 105.833 17.06C105.447 16.6067 104.9 16.38 104.193 16.38C103.487 16.38 102.94 16.6067 102.553 17.06C102.167 17.5 101.953 18.1533 101.913 19.02L101.893 19.8L101.913 20.58C101.953 21.4467 102.167 22.1067 102.553 22.56C102.94 23 103.487 23.22 104.193 23.22ZM115.929 25.2C114.463 25.2 113.289 24.7933 112.409 23.98C111.543 23.1667 111.083 22.04 111.029 20.6L111.009 19.8L111.029 19C111.083 17.56 111.543 16.4333 112.409 15.62C113.289 14.8067 114.463 14.4 115.929 14.4C116.969 14.4 117.849 14.5867 118.569 14.96C119.303 15.3333 119.843 15.7933 120.189 16.34C120.549 16.8733 120.743 17.38 120.769 17.86C120.783 17.9933 120.736 18.1067 120.629 18.2C120.536 18.2933 120.423 18.34 120.289 18.34H118.529C118.396 18.34 118.289 18.3133 118.209 18.26C118.143 18.1933 118.076 18.0867 118.009 17.94C117.809 17.42 117.543 17.0467 117.209 16.82C116.889 16.5933 116.476 16.48 115.969 16.48C115.289 16.48 114.756 16.7 114.369 17.14C113.983 17.5667 113.776 18.22 113.749 19.1L113.729 19.84L113.749 20.5C113.803 22.2467 114.543 23.12 115.969 23.12C116.489 23.12 116.909 23.0067 117.229 22.78C117.549 22.5533 117.809 22.18 118.009 21.66C118.076 21.5133 118.143 21.4133 118.209 21.36C118.289 21.2933 118.396 21.26 118.529 21.26H120.289C120.423 21.26 120.536 21.3067 120.629 21.4C120.736 21.4933 120.783 21.6067 120.769 21.74C120.743 22.2067 120.556 22.7067 120.209 23.24C119.863 23.7733 119.329 24.2333 118.609 24.62C117.889 25.0067 116.996 25.2 115.929 25.2ZM127.335 25.2C125.855 25.2 124.675 24.7733 123.795 23.92C122.928 23.0533 122.468 21.84 122.415 20.28L122.395 19.78L122.415 19.28C122.482 17.76 122.948 16.5667 123.815 15.7C124.695 14.8333 125.868 14.4 127.335 14.4C128.908 14.4 130.122 14.88 130.975 15.84C131.842 16.8 132.275 18.08 132.275 19.68V20.1C132.275 20.2333 132.228 20.3467 132.135 20.44C132.042 20.5333 131.922 20.58 131.775 20.58H125.135V20.74C125.162 21.4733 125.362 22.0933 125.735 22.6C126.122 23.0933 126.648 23.34 127.315 23.34C128.102 23.34 128.735 23.0333 129.215 22.42C129.335 22.2733 129.428 22.18 129.495 22.14C129.575 22.1 129.688 22.08 129.835 22.08H131.555C131.675 22.08 131.775 22.12 131.855 22.2C131.948 22.2667 131.995 22.3533 131.995 22.46C131.995 22.78 131.802 23.16 131.415 23.6C131.042 24.0267 130.502 24.4 129.795 24.72C129.088 25.04 128.268 25.2 127.335 25.2ZM129.555 18.9V18.84C129.555 18.0533 129.355 17.42 128.955 16.94C128.568 16.46 128.028 16.22 127.335 16.22C126.642 16.22 126.102 16.46 125.715 16.94C125.328 17.42 125.135 18.0533 125.135 18.84V18.9H129.555ZM134.898 28.8C134.765 28.8 134.651 28.7533 134.558 28.66C134.465 28.58 134.418 28.4667 134.418 28.32V15.08C134.418 14.9333 134.465 14.82 134.558 14.74C134.651 14.6467 134.765 14.6 134.898 14.6H136.478C136.625 14.6 136.738 14.6467 136.818 14.74C136.911 14.82 136.958 14.9333 136.958 15.08V15.88C137.705 14.8933 138.771 14.4 140.158 14.4C141.505 14.4 142.538 14.8267 143.258 15.68C143.978 16.52 144.365 17.66 144.418 19.1C144.431 19.26 144.438 19.4933 144.438 19.8C144.438 20.12 144.431 20.36 144.418 20.52C144.365 21.92 143.978 23.0533 143.258 23.92C142.538 24.7733 141.505 25.2 140.158 25.2C138.811 25.2 137.785 24.7267 137.078 23.78V28.32C137.078 28.4667 137.031 28.58 136.938 28.66C136.858 28.7533 136.745 28.8 136.598 28.8H134.898ZM139.418 23.06C140.858 23.06 141.625 22.1733 141.718 20.4C141.731 20.2667 141.738 20.0667 141.738 19.8C141.738 19.5333 141.731 19.3333 141.718 19.2C141.625 17.4267 140.858 16.54 139.418 16.54C138.645 16.54 138.071 16.7867 137.698 17.28C137.325 17.7733 137.118 18.38 137.078 19.1L137.058 19.86L137.078 20.64C137.105 21.3067 137.311 21.88 137.698 22.36C138.098 22.8267 138.671 23.06 139.418 23.06ZM147.163 25C147.03 25 146.917 24.9533 146.823 24.86C146.73 24.7667 146.683 24.6533 146.683 24.52V15.08C146.683 14.9467 146.73 14.8333 146.823 14.74C146.917 14.6467 147.03 14.6 147.163 14.6H151.603C152.977 14.6 154.01 14.8533 154.703 15.36C155.41 15.8667 155.763 16.5733 155.763 17.48C155.763 18.0133 155.663 18.44 155.463 18.76C155.263 19.0667 154.963 19.34 154.563 19.58C155.03 19.7933 155.39 20.1133 155.643 20.54C155.91 20.9667 156.043 21.4467 156.043 21.98C156.043 22.9533 155.683 23.7 154.963 24.22C154.243 24.74 153.197 25 151.823 25H147.163ZM151.563 18.84C152.097 18.84 152.517 18.7333 152.823 18.52C153.13 18.2933 153.283 17.9667 153.283 17.54C153.283 17.1267 153.137 16.8333 152.843 16.66C152.55 16.4867 152.123 16.4 151.563 16.4H149.243V18.84H151.563ZM151.643 23.2C152.19 23.2 152.617 23.1 152.923 22.9C153.243 22.6867 153.403 22.3733 153.403 21.96C153.403 21.52 153.257 21.2 152.963 21C152.683 20.8 152.243 20.7 151.643 20.7H149.243V23.2H151.643ZM167.823 14.6C167.943 14.6 168.05 14.6467 168.143 14.74C168.237 14.82 168.283 14.92 168.283 15.04V24.52C168.283 24.6533 168.237 24.7667 168.143 24.86C168.05 24.9533 167.937 25 167.803 25H166.143C166.01 25 165.897 24.9533 165.803 24.86C165.71 24.7667 165.663 24.6533 165.663 24.52V18.1L160.863 24.68C160.743 24.8933 160.563 25 160.323 25H158.803C158.683 25 158.577 24.96 158.483 24.88C158.39 24.7867 158.343 24.6733 158.343 24.54V15.08C158.343 14.9467 158.39 14.8333 158.483 14.74C158.577 14.6467 158.69 14.6 158.823 14.6H160.483C160.63 14.6 160.743 14.6467 160.823 14.74C160.917 14.82 160.963 14.9333 160.963 15.08V21.52L165.763 14.92C165.91 14.7067 166.09 14.6 166.303 14.6H167.823ZM175.304 25.2C173.838 25.2 172.664 24.7933 171.784 23.98C170.918 23.1667 170.458 22.04 170.404 20.6L170.384 19.8L170.404 19C170.458 17.56 170.918 16.4333 171.784 15.62C172.664 14.8067 173.838 14.4 175.304 14.4C176.344 14.4 177.224 14.5867 177.944 14.96C178.678 15.3333 179.218 15.7933 179.564 16.34C179.924 16.8733 180.118 17.38 180.144 17.86C180.158 17.9933 180.111 18.1067 180.004 18.2C179.911 18.2933 179.798 18.34 179.664 18.34H177.904C177.771 18.34 177.664 18.3133 177.584 18.26C177.518 18.1933 177.451 18.0867 177.384 17.94C177.184 17.42 176.918 17.0467 176.584 16.82C176.264 16.5933 175.851 16.48 175.344 16.48C174.664 16.48 174.131 16.7 173.744 17.14C173.358 17.5667 173.151 18.22 173.124 19.1L173.104 19.84L173.124 20.5C173.178 22.2467 173.918 23.12 175.344 23.12C175.864 23.12 176.284 23.0067 176.604 22.78C176.924 22.5533 177.184 22.18 177.384 21.66C177.451 21.5133 177.518 21.4133 177.584 21.36C177.664 21.2933 177.771 21.26 177.904 21.26H179.664C179.798 21.26 179.911 21.3067 180.004 21.4C180.111 21.4933 180.158 21.6067 180.144 21.74C180.118 22.2067 179.931 22.7067 179.584 23.24C179.238 23.7733 178.704 24.2333 177.984 24.62C177.264 25.0067 176.371 25.2 175.304 25.2Z" fill="#333333"/>
<path fill-rule="evenodd" clip-rule="evenodd" d="M36.0218 20.132L11.8079 34.8889C13.76 35.6075 15.8708 36 18.0736 36C27.3311 36 34.9629 29.0683 36.0218 20.132ZM8 32.947C3.17469 29.7151 0 24.2268 0 18C0 11.7732 3.17469 6.28493 8 3.05296V32.947ZM10.8156 1.51023C13.037 0.539024 15.4921 0 18.0736 0C27.6944 0 35.5595 7.48655 36.1158 16.9292L10.8156 1.51023Z" fill="#E5261E"/>
</symbol></svg>